<mxfile host="app.diagrams.net" modified="2021-03-22T16:55:13.184Z" agent="5.0 (Windows NT 10.0; Win64; x64) AppleWebKit/537.36 (KHTML, like Gecko) Chrome/89.0.4389.90 Safari/537.36" etag="cJr1EmOVMd_5vjEuxsgD" version="14.5.0" type="github">
  <diagram name="Page-1" id="f1b7ffb7-ca1e-a977-7cf5-a751b3c06c05">
    <mxGraphModel dx="918" dy="485" grid="1" gridSize="10" guides="1" tooltips="1" connect="1" arrows="1" fold="1" page="1" pageScale="1" pageWidth="826" pageHeight="1169" background="#ffffff" math="0" shadow="0">
      <root>
        <mxCell id="0" />
        <mxCell id="1" parent="0" />
        <mxCell id="8pO20c32Ozv0PV_CQTh0-61" value="" style="rounded=0;whiteSpace=wrap;html=1;" vertex="1" parent="1">
          <mxGeometry x="10" y="10" width="110" height="50" as="geometry" />
        </mxCell>
        <mxCell id="8pO20c32Ozv0PV_CQTh0-62" value="Menu (expandable)" style="text;html=1;strokeColor=none;fillColor=none;align=center;verticalAlign=middle;whiteSpace=wrap;rounded=0;" vertex="1" parent="1">
          <mxGeometry x="20" y="20" width="90" height="30" as="geometry" />
        </mxCell>
        <mxCell id="8pO20c32Ozv0PV_CQTh0-63" value="" style="rounded=0;whiteSpace=wrap;html=1;" vertex="1" parent="1">
          <mxGeometry x="340" y="10" width="120" height="50" as="geometry" />
        </mxCell>
        <mxCell id="8pO20c32Ozv0PV_CQTh0-64" value="Logo" style="text;html=1;strokeColor=none;fillColor=none;align=center;verticalAlign=middle;whiteSpace=wrap;rounded=0;" vertex="1" parent="1">
          <mxGeometry x="380" y="25" width="40" height="20" as="geometry" />
        </mxCell>
        <mxCell id="8pO20c32Ozv0PV_CQTh0-65" value="" style="rounded=0;whiteSpace=wrap;html=1;" vertex="1" parent="1">
          <mxGeometry x="10" y="60" width="150" height="260" as="geometry" />
        </mxCell>
        <mxCell id="8pO20c32Ozv0PV_CQTh0-66" value="" style="rounded=0;whiteSpace=wrap;html=1;" vertex="1" parent="1">
          <mxGeometry x="720" y="10" width="80" height="50" as="geometry" />
        </mxCell>
        <mxCell id="8pO20c32Ozv0PV_CQTh0-67" value="Profile" style="text;html=1;strokeColor=none;fillColor=none;align=center;verticalAlign=middle;whiteSpace=wrap;rounded=0;" vertex="1" parent="1">
          <mxGeometry x="740" y="25" width="40" height="20" as="geometry" />
        </mxCell>
        <mxCell id="8pO20c32Ozv0PV_CQTh0-70" value="" style="strokeWidth=1;shadow=0;dashed=0;align=center;html=1;shape=mxgraph.mockup.forms.rrect;rSize=0;strokeColor=#999999;fillColor=#ffffff;" vertex="1" parent="1">
          <mxGeometry x="640" y="60" width="160" height="300" as="geometry" />
        </mxCell>
        <mxCell id="8pO20c32Ozv0PV_CQTh0-71" value="Sign In" style="strokeWidth=1;shadow=0;dashed=0;align=center;html=1;shape=mxgraph.mockup.forms.anchor;fontSize=12;fontColor=#666666;align=left;resizeWidth=1;spacingLeft=0;" vertex="1" parent="8pO20c32Ozv0PV_CQTh0-70">
          <mxGeometry width="80" height="20" relative="1" as="geometry">
            <mxPoint x="10" y="10" as="offset" />
          </mxGeometry>
        </mxCell>
        <mxCell id="8pO20c32Ozv0PV_CQTh0-72" value="" style="shape=line;strokeColor=#ddeeff;strokeWidth=2;html=1;resizeWidth=1;" vertex="1" parent="8pO20c32Ozv0PV_CQTh0-70">
          <mxGeometry width="144" height="10" relative="1" as="geometry">
            <mxPoint x="10" y="30" as="offset" />
          </mxGeometry>
        </mxCell>
        <mxCell id="8pO20c32Ozv0PV_CQTh0-73" value="User Name:" style="strokeWidth=1;shadow=0;dashed=0;align=center;html=1;shape=mxgraph.mockup.forms.anchor;fontSize=12;fontColor=#666666;align=left;resizeWidth=1;spacingLeft=0;" vertex="1" parent="8pO20c32Ozv0PV_CQTh0-70">
          <mxGeometry width="80" height="20" relative="1" as="geometry">
            <mxPoint x="10" y="40" as="offset" />
          </mxGeometry>
        </mxCell>
        <mxCell id="8pO20c32Ozv0PV_CQTh0-74" value="johndoe" style="strokeWidth=1;shadow=0;dashed=0;align=center;html=1;shape=mxgraph.mockup.forms.rrect;rSize=0;strokeColor=#999999;fontColor=#666666;align=left;spacingLeft=5;resizeWidth=1;" vertex="1" parent="8pO20c32Ozv0PV_CQTh0-70">
          <mxGeometry width="120" height="25" relative="1" as="geometry">
            <mxPoint x="10" y="60" as="offset" />
          </mxGeometry>
        </mxCell>
        <mxCell id="8pO20c32Ozv0PV_CQTh0-75" value="Password:" style="strokeWidth=1;shadow=0;dashed=0;align=center;html=1;shape=mxgraph.mockup.forms.anchor;fontSize=12;fontColor=#666666;align=left;resizeWidth=1;spacingLeft=0;" vertex="1" parent="8pO20c32Ozv0PV_CQTh0-70">
          <mxGeometry width="80" height="20" relative="1" as="geometry">
            <mxPoint x="10" y="95" as="offset" />
          </mxGeometry>
        </mxCell>
        <mxCell id="8pO20c32Ozv0PV_CQTh0-76" value="********" style="strokeWidth=1;shadow=0;dashed=0;align=center;html=1;shape=mxgraph.mockup.forms.rrect;rSize=0;strokeColor=#999999;fontColor=#666666;align=left;spacingLeft=5;resizeWidth=1;" vertex="1" parent="8pO20c32Ozv0PV_CQTh0-70">
          <mxGeometry width="120" height="25" relative="1" as="geometry">
            <mxPoint x="10" y="115" as="offset" />
          </mxGeometry>
        </mxCell>
        <mxCell id="8pO20c32Ozv0PV_CQTh0-77" value="SIGN IN" style="strokeWidth=1;shadow=0;dashed=0;align=center;html=1;shape=mxgraph.mockup.forms.rrect;rSize=5;strokeColor=none;fontColor=#ffffff;fillColor=#66bbff;fontSize=16;fontStyle=1;" vertex="1" parent="8pO20c32Ozv0PV_CQTh0-70">
          <mxGeometry y="1" width="80" height="30" relative="1" as="geometry">
            <mxPoint x="20" y="-150" as="offset" />
          </mxGeometry>
        </mxCell>
        <mxCell id="8pO20c32Ozv0PV_CQTh0-78" value="Forgot Password?" style="strokeWidth=1;shadow=0;dashed=0;align=center;html=1;shape=mxgraph.mockup.forms.anchor;fontSize=12;fontColor=#9999ff;align=left;spacingLeft=0;fontStyle=4;resizeWidth=1;" vertex="1" parent="8pO20c32Ozv0PV_CQTh0-70">
          <mxGeometry y="1" width="120" height="20" relative="1" as="geometry">
            <mxPoint x="10" y="-110" as="offset" />
          </mxGeometry>
        </mxCell>
        <mxCell id="8pO20c32Ozv0PV_CQTh0-79" value="" style="shape=line;strokeColor=#ddeeff;strokeWidth=2;html=1;resizeWidth=1;" vertex="1" parent="8pO20c32Ozv0PV_CQTh0-70">
          <mxGeometry y="1" width="144" height="10" relative="1" as="geometry">
            <mxPoint x="10" y="-90" as="offset" />
          </mxGeometry>
        </mxCell>
        <mxCell id="8pO20c32Ozv0PV_CQTh0-80" value="New User" style="strokeWidth=1;shadow=0;dashed=0;align=center;html=1;shape=mxgraph.mockup.forms.anchor;fontSize=12;fontColor=#666666;align=left;spacingLeft=0;resizeWidth=1;" vertex="1" parent="8pO20c32Ozv0PV_CQTh0-70">
          <mxGeometry y="1" width="120" height="20" relative="1" as="geometry">
            <mxPoint x="10" y="-70" as="offset" />
          </mxGeometry>
        </mxCell>
        <mxCell id="8pO20c32Ozv0PV_CQTh0-81" value="SIGN UP" style="strokeWidth=1;shadow=0;dashed=0;align=center;html=1;shape=mxgraph.mockup.forms.rrect;rSize=5;strokeColor=none;fontColor=#ffffff;fillColor=#66bbff;fontSize=16;fontStyle=1;" vertex="1" parent="8pO20c32Ozv0PV_CQTh0-70">
          <mxGeometry y="1" width="80" height="30" relative="1" as="geometry">
            <mxPoint x="20" y="-50" as="offset" />
          </mxGeometry>
        </mxCell>
        <mxCell id="8pO20c32Ozv0PV_CQTh0-84" value="Search" style="strokeWidth=1;shadow=0;dashed=0;align=center;html=1;shape=mxgraph.mockup.forms.searchBox;strokeColor=#999999;mainText=;strokeColor2=#008cff;fontColor=#666666;fontSize=17;align=left;spacingLeft=3;" vertex="1" parent="1">
          <mxGeometry x="510" y="20" width="150" height="30" as="geometry" />
        </mxCell>
        <mxCell id="8pO20c32Ozv0PV_CQTh0-86" value="" style="strokeWidth=1;shadow=0;dashed=0;align=center;html=1;shape=mxgraph.mockup.containers.rrect;rSize=0;strokeColor=#666666;" vertex="1" parent="1">
          <mxGeometry x="20" y="70" width="110" height="220" as="geometry" />
        </mxCell>
        <mxCell id="8pO20c32Ozv0PV_CQTh0-87" value="Blog" style="strokeColor=inherit;fillColor=inherit;gradientColor=inherit;strokeWidth=1;shadow=0;dashed=0;align=center;html=1;shape=mxgraph.mockup.containers.rrect;rSize=0;fontSize=17;fontColor=#666666;fontStyle=1;resizeWidth=1;" vertex="1" parent="8pO20c32Ozv0PV_CQTh0-86">
          <mxGeometry width="100" height="30" relative="1" as="geometry" />
        </mxCell>
        <mxCell id="8pO20c32Ozv0PV_CQTh0-88" value="Forum" style="strokeColor=inherit;fillColor=inherit;gradientColor=inherit;strokeWidth=1;shadow=0;dashed=0;align=center;html=1;shape=mxgraph.mockup.containers.rrect;rSize=0;fontSize=17;fontColor=#666666;fontStyle=1;resizeWidth=1;" vertex="1" parent="8pO20c32Ozv0PV_CQTh0-86">
          <mxGeometry width="80" height="30" relative="1" as="geometry">
            <mxPoint y="30" as="offset" />
          </mxGeometry>
        </mxCell>
        <mxCell id="8pO20c32Ozv0PV_CQTh0-91" value="Messages" style="strokeColor=inherit;fillColor=inherit;gradientColor=inherit;strokeWidth=1;shadow=0;dashed=0;align=center;html=1;shape=mxgraph.mockup.containers.rrect;rSize=0;fontSize=17;fontColor=#666666;fontStyle=1;resizeWidth=1;" vertex="1" parent="8pO20c32Ozv0PV_CQTh0-86">
          <mxGeometry y="60" width="100" height="30" as="geometry" />
        </mxCell>
        <mxCell id="8pO20c32Ozv0PV_CQTh0-92" value="Mixed" style="strokeColor=inherit;fillColor=inherit;gradientColor=inherit;strokeWidth=1;shadow=0;dashed=0;align=center;html=1;shape=mxgraph.mockup.containers.rrect;rSize=0;fontSize=17;fontColor=#666666;fontStyle=1;resizeWidth=1;" vertex="1" parent="8pO20c32Ozv0PV_CQTh0-86">
          <mxGeometry y="90" width="100" height="30" as="geometry" />
        </mxCell>
        <mxCell id="8pO20c32Ozv0PV_CQTh0-94" value="" style="strokeColor=inherit;fillColor=inherit;gradientColor=inherit;strokeWidth=1;shadow=0;dashed=0;align=center;html=1;shape=mxgraph.mockup.containers.rrect;rSize=0;fontSize=17;fontColor=#666666;fontStyle=1;resizeWidth=1;" vertex="1" parent="8pO20c32Ozv0PV_CQTh0-86">
          <mxGeometry x="80" y="30" width="20" height="30" as="geometry" />
        </mxCell>
        <mxCell id="8pO20c32Ozv0PV_CQTh0-95" value="" style="triangle;whiteSpace=wrap;html=1;" vertex="1" parent="8pO20c32Ozv0PV_CQTh0-86">
          <mxGeometry x="85" y="35" width="10" height="20" as="geometry" />
        </mxCell>
        <mxCell id="8pO20c32Ozv0PV_CQTh0-96" value="" style="rounded=0;whiteSpace=wrap;html=1;" vertex="1" parent="1">
          <mxGeometry x="170" y="100" width="460" height="520" as="geometry" />
        </mxCell>
        <mxCell id="8pO20c32Ozv0PV_CQTh0-97" value="" style="rounded=0;whiteSpace=wrap;html=1;" vertex="1" parent="1">
          <mxGeometry x="170" y="70" width="460" height="20" as="geometry" />
        </mxCell>
        <mxCell id="8pO20c32Ozv0PV_CQTh0-98" value="Blog" style="text;html=1;strokeColor=none;fillColor=none;align=center;verticalAlign=middle;whiteSpace=wrap;rounded=0;" vertex="1" parent="1">
          <mxGeometry x="295" y="70" width="210" height="20" as="geometry" />
        </mxCell>
        <mxCell id="8pO20c32Ozv0PV_CQTh0-99" value="" style="rounded=0;whiteSpace=wrap;html=1;" vertex="1" parent="1">
          <mxGeometry x="175" y="110" width="445" height="70" as="geometry" />
        </mxCell>
        <mxCell id="8pO20c32Ozv0PV_CQTh0-100" value="Headline" style="text;html=1;strokeColor=none;fillColor=none;align=center;verticalAlign=middle;whiteSpace=wrap;rounded=0;" vertex="1" parent="1">
          <mxGeometry x="175" y="135" width="80" height="20" as="geometry" />
        </mxCell>
        <mxCell id="8pO20c32Ozv0PV_CQTh0-101" value="&lt;font style=&quot;font-size: 10px&quot;&gt;Like&lt;/font&gt;" style="strokeWidth=1;shadow=0;dashed=0;align=center;html=1;shape=mxgraph.mockup.buttons.button;strokeColor=#666666;fontColor=#ffffff;mainText=;buttonStyle=round;fontSize=17;fontStyle=1;fillColor=#008cff;whiteSpace=wrap;" vertex="1" parent="1">
          <mxGeometry x="580" y="120" width="40" height="20" as="geometry" />
        </mxCell>
        <mxCell id="8pO20c32Ozv0PV_CQTh0-102" value="&lt;font style=&quot;font-size: 10px&quot;&gt;Dislike&lt;/font&gt;" style="strokeWidth=1;shadow=0;dashed=0;align=center;html=1;shape=mxgraph.mockup.buttons.button;strokeColor=#666666;fontColor=#ffffff;mainText=;buttonStyle=round;fontSize=17;fontStyle=1;fillColor=#008cff;whiteSpace=wrap;" vertex="1" parent="1">
          <mxGeometry x="580" y="150" width="40" height="20" as="geometry" />
        </mxCell>
        <mxCell id="8pO20c32Ozv0PV_CQTh0-103" value="" style="verticalLabelPosition=bottom;shadow=0;dashed=0;align=center;html=1;verticalAlign=top;strokeWidth=1;shape=mxgraph.mockup.navigation.scrollBar;strokeColor=#999999;barPos=20;fillColor2=#99ddff;strokeColor2=none;direction=north;" vertex="1" parent="1">
          <mxGeometry x="806" width="20" height="620" as="geometry" />
        </mxCell>
        <mxCell id="8pO20c32Ozv0PV_CQTh0-105" value="counter likes" style="text;html=1;strokeColor=none;fillColor=none;align=center;verticalAlign=middle;whiteSpace=wrap;rounded=0;" vertex="1" parent="1">
          <mxGeometry x="530" y="132.5" width="40" height="25" as="geometry" />
        </mxCell>
        <mxCell id="8pO20c32Ozv0PV_CQTh0-108" value="" style="line;strokeWidth=4;direction=south;html=1;perimeter=backbonePerimeter;points=[];outlineConnect=0;" vertex="1" parent="1">
          <mxGeometry x="255" y="120" width="10" height="50" as="geometry" />
        </mxCell>
        <mxCell id="8pO20c32Ozv0PV_CQTh0-109" value="" style="line;strokeWidth=4;direction=south;html=1;perimeter=backbonePerimeter;points=[];outlineConnect=0;" vertex="1" parent="1">
          <mxGeometry x="520" y="120" width="10" height="50" as="geometry" />
        </mxCell>
        <mxCell id="8pO20c32Ozv0PV_CQTh0-111" value="Content" style="text;html=1;strokeColor=none;fillColor=none;align=center;verticalAlign=middle;whiteSpace=wrap;rounded=0;" vertex="1" parent="1">
          <mxGeometry x="270" y="135" width="60" height="20" as="geometry" />
        </mxCell>
      </root>
    </mxGraphModel>
  </diagram>
</mxfile>
